<svg width="1270" height="1202" viewBox="0 0 1270 1202" fill="none" xmlns="http://www.w3.org/2000/svg">
<path d="M641.827 1.42383V601L640.736 601.26L371.09 66.2822L370.83 65.7666L371.346 65.5078C455.069 23.3718 547.508 1.42383 641.251 1.42383H641.827Z" fill="#494949" stroke="#494949" stroke-width="1.15303"/>
<path d="M372.712 65.3005L641.765 600.741L642.727 602.656L640.934 601.482L140.163 273.633L139.681 273.317L139.995 272.836C197.691 184.298 277.707 112.614 371.937 65.0447L372.453 64.7839L372.712 65.3005Z" fill="#494949" stroke="#494949" stroke-width="1.15303"/>
<path d="M140.069 273.09L641.566 600.998L641.883 601.205L641.819 601.579L539.517 1192.39L539.419 1192.96L538.851 1192.86C340.051 1158.37 171.912 1026.09 91.4348 840.882C10.9576 655.669 28.9341 442.356 139.27 273.257L139.585 272.774L140.069 273.09Z" fill="#494949" stroke="#494949" stroke-width="1.15303"/>
<path d="M641.471 1.42383C867.897 1.42398 1075 129.072 1176.81 331.388C1278.63 533.704 1257.78 776.148 1122.92 958.097C988.057 1140.05 762.208 1230.44 539.108 1191.75L538.541 1191.65L538.639 1191.08L640.894 600.942V1.42383H641.471Z" fill="#AE6456" stroke="#AE6456" stroke-width="1.15303"/>
<path d="M702.538 657.023L693.272 655.319C693.323 654.089 693.174 652.961 692.823 651.934C692.475 650.894 691.953 649.967 691.257 649.153C690.561 648.34 689.709 647.659 688.702 647.109C687.709 646.562 686.593 646.174 685.351 645.946C683.109 645.534 681.054 645.732 679.185 646.54C677.318 647.334 675.732 648.704 674.427 650.651C673.124 652.584 672.196 655.052 671.644 658.056C671.076 661.144 671.057 663.824 671.587 666.093C672.131 668.366 673.137 670.191 674.604 671.569C676.071 672.947 677.898 673.836 680.084 674.238C681.31 674.464 682.476 674.511 683.579 674.378C684.696 674.248 685.721 673.948 686.653 673.478C687.588 672.994 688.406 672.35 689.108 671.546C689.824 670.744 690.394 669.785 690.818 668.667L700.075 670.413C699.47 672.358 698.518 674.165 697.219 675.837C695.937 677.496 694.359 678.904 692.484 680.061C690.626 681.207 688.512 681.999 686.143 682.438C683.79 682.866 681.224 682.824 678.446 682.313C674.582 681.603 671.287 680.093 668.563 677.784C665.852 675.478 663.92 672.506 662.767 668.867C661.628 665.232 661.491 661.059 662.357 656.348C663.226 651.624 664.853 647.768 667.24 644.781C669.626 641.794 672.502 639.713 675.867 638.538C679.234 637.35 682.822 637.105 686.63 637.805C689.14 638.267 691.402 639.047 693.416 640.147C695.444 641.249 697.166 642.63 698.581 644.289C699.998 645.935 701.05 647.827 701.736 649.965C702.436 652.106 702.703 654.458 702.538 657.023ZM703.759 686.355L709.734 653.863L718.745 655.52L712.771 688.012L703.759 686.355ZM715.031 650.507C713.691 650.261 712.624 649.605 711.828 648.54C711.049 647.464 710.775 646.298 711.006 645.043C711.234 643.802 711.902 642.824 713.011 642.11C714.135 641.383 715.368 641.143 716.708 641.39C718.047 641.636 719.107 642.297 719.885 643.374C720.681 644.439 720.965 645.591 720.737 646.832C720.506 648.088 719.828 649.078 718.703 649.805C717.595 650.519 716.371 650.753 715.031 650.507ZM756.256 662.418L738.922 692.821L728.768 690.954L723.383 656.373L732.903 658.123L735.376 682.612L735.714 682.674L746.716 660.663L756.256 662.418ZM754.893 695.758L760.868 663.266L769.879 664.923L763.905 697.415L754.893 695.758ZM766.165 659.909C764.825 659.663 763.758 659.008 762.962 657.943C762.183 656.866 761.909 655.701 762.14 654.446C762.368 653.205 763.036 652.227 764.144 651.512C765.269 650.786 766.502 650.546 767.841 650.792C769.181 651.039 770.241 651.7 771.019 652.776C771.815 653.841 772.099 654.994 771.871 656.235C771.64 657.49 770.962 658.481 769.837 659.207C768.729 659.922 767.505 660.156 766.165 659.909ZM788.101 657.076L780.135 700.399L771.124 698.742L779.09 655.419L788.101 657.076ZM844.712 683.166L835.447 681.462C835.498 680.232 835.348 679.104 834.998 678.077C834.65 677.036 834.127 676.109 833.431 675.296C832.735 674.483 831.884 673.802 830.877 673.252C829.884 672.705 828.767 672.317 827.526 672.089C825.284 671.677 823.228 671.875 821.359 672.683C819.493 673.477 817.907 674.847 816.601 676.794C815.298 678.727 814.37 681.195 813.818 684.199C813.25 687.287 813.231 689.966 813.762 692.236C814.306 694.509 815.312 696.334 816.779 697.712C818.246 699.089 820.072 699.979 822.258 700.381C823.485 700.607 824.65 700.653 825.753 700.521C826.871 700.391 827.895 700.091 828.827 699.621C829.762 699.137 830.58 698.493 831.282 697.689C831.998 696.887 832.568 695.928 832.992 694.81L842.25 696.556C841.645 698.501 840.693 700.308 839.394 701.979C838.112 703.639 836.534 705.047 834.659 706.204C832.801 707.35 830.687 708.142 828.317 708.581C825.964 709.008 823.398 708.967 820.62 708.456C816.756 707.745 813.462 706.236 810.737 703.927C808.027 701.621 806.095 698.648 804.941 695.01C803.802 691.374 803.665 687.201 804.532 682.491C805.4 677.767 807.028 673.911 809.414 670.924C811.8 667.936 814.676 665.855 818.041 664.681C821.409 663.492 824.997 663.248 828.804 663.948C831.315 664.41 833.577 665.19 835.591 666.29C837.619 667.391 839.34 668.772 840.755 670.432C842.173 672.078 843.225 673.97 843.911 676.108C844.61 678.248 844.878 680.601 844.712 683.166ZM860.498 715.832C857.212 715.228 854.499 714.007 852.358 712.17C850.234 710.322 848.754 708.023 847.918 705.274C847.085 702.512 846.974 699.466 847.586 696.138C848.204 692.781 849.392 689.967 851.151 687.696C852.912 685.41 855.113 683.788 857.753 682.83C860.41 681.861 863.381 681.678 866.667 682.282C869.953 682.887 872.658 684.113 874.782 685.961C876.923 687.798 878.41 690.098 879.243 692.861C880.079 695.61 880.188 698.663 879.571 702.019C878.959 705.347 877.772 708.154 876.01 710.44C874.251 712.712 872.044 714.332 869.387 715.302C866.747 716.26 863.784 716.436 860.498 715.832ZM861.824 708.859C863.319 709.134 864.645 708.941 865.801 708.278C866.961 707.602 867.931 706.571 868.711 705.183C869.505 703.798 870.075 702.161 870.423 700.271C870.77 698.382 870.819 696.648 870.57 695.072C870.334 693.498 869.795 692.188 868.952 691.144C868.109 690.1 866.94 689.44 865.445 689.165C863.936 688.888 862.588 689.084 861.4 689.755C860.227 690.429 859.243 691.458 858.449 692.843C857.669 694.23 857.105 695.869 856.758 697.759C856.41 699.648 856.354 701.38 856.59 702.954C856.839 704.531 857.392 705.843 858.25 706.89C859.123 707.925 860.315 708.582 861.824 708.859ZM894.932 702.088L891.478 720.873L882.466 719.216L888.441 686.723L897.03 688.303L895.975 694.035L896.356 694.105C897.423 692.348 898.904 691.075 900.798 690.286C902.695 689.483 904.85 689.303 907.261 689.747C909.518 690.162 911.394 691.017 912.891 692.313C914.387 693.608 915.433 695.259 916.026 697.263C916.623 699.253 916.689 701.511 916.224 704.035L912.42 724.724L903.409 723.066L906.917 703.986C907.297 702 907.075 700.355 906.25 699.052C905.428 697.734 904.114 696.91 902.309 696.578C901.096 696.355 899.977 696.419 898.95 696.769C897.937 697.122 897.078 697.752 896.372 698.657C895.683 699.551 895.203 700.695 894.932 702.088ZM942.78 696.715L941.535 703.484L921.968 699.886L923.213 693.117L942.78 696.715ZM929.086 686.149L938.098 687.806L932.528 718.099C932.375 718.931 932.382 719.603 932.551 720.115C932.722 720.613 933.016 720.995 933.433 721.261C933.865 721.53 934.384 721.72 934.99 721.832C935.414 721.91 935.843 721.952 936.279 721.959C936.718 721.953 937.054 721.949 937.287 721.948L937.471 728.914C936.994 728.972 936.33 729.018 935.478 729.051C934.624 729.098 933.608 729.035 932.429 728.862C930.242 728.547 928.391 727.908 926.877 726.944C925.377 725.983 924.305 724.722 923.659 723.16C923.013 721.598 922.893 719.753 923.298 717.626L929.086 686.149ZM942.675 730.287L948.65 697.795L957.387 699.401L956.344 705.07L956.683 705.132C957.646 703.225 958.92 701.884 960.505 701.112C962.093 700.325 963.797 700.099 965.616 700.433C966.068 700.516 966.549 700.634 967.06 700.786C967.572 700.939 968.016 701.1 968.393 701.272L966.922 709.268C966.523 709.063 965.958 708.843 965.229 708.607C964.499 708.37 963.825 708.195 963.204 708.081C961.878 707.837 960.641 707.909 959.491 708.295C958.358 708.67 957.394 709.309 956.601 710.213C955.822 711.119 955.311 712.236 955.067 713.561L951.687 731.944L942.675 730.287ZM975.272 736.915C973.199 736.534 971.417 735.834 969.928 734.817C968.441 733.785 967.356 732.47 966.673 730.872C966.007 729.263 965.871 727.386 966.265 725.243C966.597 723.437 967.207 721.982 968.095 720.877C968.984 719.772 970.068 718.951 971.347 718.414C972.627 717.876 974.028 717.551 975.551 717.437C977.088 717.326 978.674 717.341 980.31 717.481C982.236 717.631 983.793 717.728 984.981 717.771C986.171 717.801 987.059 717.687 987.646 717.43C988.232 717.174 988.589 716.7 988.716 716.009L988.74 715.882C988.986 714.542 988.753 713.428 988.042 712.539C987.345 711.653 986.228 711.068 984.691 710.786C983.069 710.487 981.712 710.61 980.621 711.153C979.532 711.681 978.734 712.453 978.227 713.468L970.017 711.258C970.803 709.362 971.949 707.808 973.454 706.598C974.963 705.374 976.768 704.554 978.871 704.139C980.991 703.712 983.348 703.737 985.943 704.214C987.748 704.546 989.436 705.076 991.009 705.802C992.595 706.531 993.948 707.458 995.068 708.582C996.202 709.709 997.014 711.04 997.505 712.573C997.998 714.093 998.067 715.818 997.712 717.751L993.682 739.666L985.136 738.094L985.965 733.589L985.711 733.542C985.003 734.461 984.14 735.229 983.123 735.843C982.108 736.444 980.948 736.85 979.64 737.062C978.336 737.259 976.879 737.21 975.272 736.915ZM978.996 731.17C980.322 731.414 981.54 731.368 982.651 731.033C983.765 730.684 984.694 730.111 985.439 729.315C986.183 728.519 986.66 727.549 986.87 726.407L987.504 722.959C987.188 723.09 986.769 723.188 986.247 723.253C985.742 723.306 985.174 723.34 984.544 723.355C983.917 723.356 983.291 723.351 982.667 723.338C982.045 723.311 981.481 723.288 980.974 723.267C979.888 723.228 978.919 723.305 978.067 723.498C977.215 723.691 976.517 724.037 975.974 724.535C975.433 725.018 975.084 725.683 974.929 726.529C974.703 727.756 974.975 728.776 975.744 729.588C976.53 730.389 977.614 730.916 978.996 731.17ZM1015.24 744.285C1011.91 743.674 1009.18 742.442 1007.04 740.591C1004.92 738.728 1003.45 736.417 1002.63 733.657C1001.82 730.899 1001.72 727.877 1002.33 724.591C1002.94 721.263 1004.12 718.462 1005.86 716.187C1007.62 713.902 1009.83 712.273 1012.47 711.301C1015.11 710.315 1018.08 710.124 1021.36 710.728C1024.2 711.249 1026.59 712.22 1028.53 713.641C1030.47 715.062 1031.89 716.818 1032.79 718.907C1033.68 720.997 1033.97 723.309 1033.63 725.842L1025.13 724.279C1025.19 722.613 1024.79 721.192 1023.94 720.015C1023.11 718.827 1021.87 718.081 1020.22 717.778C1018.83 717.521 1017.54 717.678 1016.35 718.247C1015.18 718.806 1014.18 719.751 1013.34 721.083C1012.49 722.415 1011.89 724.104 1011.51 726.148C1011.13 728.221 1011.09 730.036 1011.38 731.592C1011.69 733.151 1012.3 734.407 1013.2 735.361C1014.11 736.314 1015.26 736.919 1016.65 737.176C1017.68 737.365 1018.65 737.324 1019.54 737.051C1020.45 736.781 1021.25 736.293 1021.93 735.588C1022.63 734.871 1023.17 733.957 1023.55 732.846L1032.06 734.41C1031.46 736.866 1030.38 738.927 1028.82 740.594C1027.28 742.249 1025.35 743.411 1023.04 744.08C1020.73 744.749 1018.13 744.817 1015.24 744.285ZM1058.89 718.066L1057.65 724.835L1038.08 721.237L1039.33 714.468L1058.89 718.066ZM1045.2 707.5L1054.21 709.157L1048.64 739.449C1048.49 740.281 1048.5 740.953 1048.66 741.465C1048.83 741.963 1049.13 742.346 1049.55 742.612C1049.98 742.881 1050.5 743.071 1051.1 743.183C1051.53 743.26 1051.96 743.303 1052.39 743.31C1052.83 743.303 1053.17 743.299 1053.4 743.299L1053.58 750.265C1053.11 750.323 1052.44 750.369 1051.59 750.401C1050.74 750.449 1049.72 750.386 1048.54 750.213C1046.36 749.898 1044.5 749.259 1042.99 748.295C1041.49 747.334 1040.42 746.073 1039.77 744.51C1039.13 742.948 1039.01 741.104 1039.41 738.977L1045.2 707.5ZM653.9 706.623L665.196 708.7L671.774 740.002L672.282 740.095L689.565 713.181L700.861 715.259L692.895 758.581L684.011 756.948L689.196 728.75L688.836 728.684L672.478 754.609L666.428 753.496L660.382 723.342L660.023 723.276L654.818 751.58L645.934 749.946L653.9 706.623ZM714.963 763.295C711.621 762.681 708.869 761.475 706.706 759.678C704.56 757.869 703.068 755.597 702.23 752.862C701.394 750.114 701.291 747.026 701.921 743.599C702.536 740.257 703.724 737.442 705.485 735.157C707.247 732.871 709.435 731.239 712.049 730.262C714.678 729.288 717.586 729.093 720.773 729.679C722.916 730.074 724.848 730.786 726.569 731.817C728.306 732.836 729.74 734.157 730.87 735.779C732.015 737.403 732.784 739.324 733.179 741.539C733.576 743.741 733.52 746.224 733.012 748.988L732.557 751.463L705.12 746.418L706.147 740.833L725.101 744.318C725.34 743.021 725.269 741.82 724.889 740.715C724.509 739.61 723.87 738.683 722.973 737.935C722.092 737.175 720.996 736.675 719.684 736.434C718.316 736.182 717.045 736.276 715.871 736.716C714.713 737.145 713.741 737.834 712.954 738.783C712.17 739.717 711.653 740.825 711.402 742.106L710.426 747.415C710.13 749.023 710.171 750.466 710.548 751.746C710.939 753.028 711.627 754.087 712.61 754.924C713.593 755.761 714.839 756.318 716.348 756.596C717.35 756.78 718.292 756.807 719.176 756.678C720.06 756.549 720.85 756.257 721.546 755.802C722.242 755.347 722.821 754.739 723.281 753.978L731.515 756.06C730.723 757.985 729.534 759.574 727.948 760.828C726.378 762.07 724.488 762.918 722.276 763.372C720.08 763.813 717.643 763.788 714.963 763.295ZM735.874 766.484L741.849 733.992L750.437 735.571L749.383 741.304L749.764 741.374C750.791 739.595 752.195 738.3 753.977 737.491C755.759 736.681 757.75 736.479 759.95 736.883C762.178 737.293 763.972 738.199 765.333 739.601C766.696 740.988 767.465 742.675 767.639 744.661L767.977 744.723C768.982 742.984 770.455 741.716 772.394 740.921C774.35 740.114 776.52 739.93 778.903 740.368C781.936 740.926 784.219 742.344 785.753 744.624C787.304 746.892 787.756 749.789 787.108 753.314L783.09 775.166L774.099 773.513L777.791 753.438C778.122 751.633 777.892 750.191 777.099 749.112C776.306 748.033 775.19 747.362 773.752 747.097C772.116 746.796 770.744 747.083 769.635 747.958C768.529 748.819 767.82 750.096 767.509 751.788L763.861 771.63L755.124 770.024L758.851 749.759C759.144 748.165 758.919 746.812 758.176 745.698C757.447 744.587 756.342 743.896 754.861 743.624C753.86 743.439 752.911 743.527 752.014 743.887C751.133 744.236 750.377 744.818 749.746 745.635C749.117 746.438 748.693 747.439 748.472 748.638L744.886 768.141L735.874 766.484ZM790.377 776.506L798.343 733.183L807.355 734.84L804.36 751.129L804.635 751.179C805.19 750.378 805.925 749.594 806.838 748.829C807.768 748.052 808.895 747.472 810.22 747.089C811.561 746.694 813.141 746.664 814.96 746.998C817.329 747.434 819.401 748.456 821.175 750.066C822.952 751.661 824.212 753.81 824.954 756.512C825.699 759.2 825.729 762.406 825.045 766.129C824.378 769.754 823.23 772.706 821.601 774.987C819.988 777.257 818.063 778.849 815.824 779.764C813.602 780.668 811.257 780.892 808.789 780.439C807.041 780.117 805.606 779.554 804.485 778.751C803.379 777.949 802.518 777.04 801.903 776.023C801.291 774.992 800.863 773.988 800.62 773.01L800.218 772.936L799.262 778.14L790.377 776.506ZM802.185 761.882C801.83 763.814 801.788 765.549 802.06 767.086C802.331 768.623 802.901 769.886 803.768 770.877C804.638 771.853 805.8 772.475 807.252 772.742C808.719 773.012 810.034 772.838 811.197 772.221C812.363 771.59 813.339 770.603 814.125 769.261C814.928 767.907 815.503 766.285 815.851 764.395C816.196 762.519 816.238 760.821 815.978 759.301C815.718 757.781 815.155 756.525 814.287 755.535C813.42 754.544 812.245 753.913 810.765 753.64C809.298 753.371 807.986 753.53 806.828 754.119C805.684 754.711 804.713 755.67 803.915 756.995C803.117 758.321 802.541 759.95 802.185 761.882ZM842.769 786.796C839.427 786.182 836.675 784.976 834.512 783.178C832.366 781.37 830.874 779.098 830.035 776.363C829.2 773.614 829.097 770.526 829.727 767.1C830.341 763.757 831.53 760.943 833.291 758.657C835.053 756.372 837.241 754.74 839.855 753.763C842.484 752.788 845.392 752.594 848.579 753.18C850.722 753.574 852.654 754.287 854.375 755.317C856.112 756.337 857.546 757.657 858.676 759.279C859.821 760.904 860.59 762.824 860.985 765.04C861.382 767.241 861.326 769.724 860.818 772.488L860.363 774.963L832.926 769.918L833.953 764.334L852.907 767.819C853.145 766.522 853.075 765.32 852.695 764.215C852.315 763.11 851.676 762.184 850.778 761.436C849.898 760.676 848.801 760.175 847.49 759.934C846.122 759.683 844.851 759.777 843.676 760.217C842.519 760.646 841.546 761.334 840.76 762.283C839.976 763.218 839.458 764.326 839.208 765.606L838.232 770.916C837.936 772.524 837.977 773.967 838.354 775.247C838.745 776.529 839.433 777.588 840.416 778.425C841.399 779.262 842.645 779.819 844.154 780.096C845.156 780.281 846.098 780.308 846.982 780.179C847.866 780.05 848.656 779.758 849.352 779.303C850.048 778.847 850.626 778.239 851.087 777.479L859.32 779.561C858.529 781.486 857.34 783.075 855.754 784.329C854.184 785.571 852.293 786.419 850.081 786.872C847.886 787.314 845.449 787.289 842.769 786.796ZM863.68 789.985L869.655 757.493L878.391 759.099L877.349 764.769L877.687 764.831C878.65 762.923 879.925 761.583 881.51 760.81C883.098 760.023 884.802 759.797 886.621 760.132C887.072 760.214 887.554 760.332 888.065 760.485C888.576 760.637 889.021 760.799 889.397 760.97L887.927 768.966C887.527 768.761 886.963 768.541 886.233 768.305C885.504 768.069 884.829 767.894 884.209 767.779C882.883 767.536 881.645 767.607 880.495 767.993C879.362 768.368 878.399 769.007 877.606 769.911C876.827 770.818 876.316 771.934 876.072 773.259L872.692 791.642L863.68 789.985ZM919.36 776.211L911.017 775.202C911.005 774.471 910.819 773.781 910.457 773.131C910.098 772.467 909.569 771.896 908.87 771.417C908.187 770.927 907.324 770.586 906.28 770.395C904.884 770.138 903.652 770.218 902.584 770.633C901.519 771.035 900.897 771.723 900.718 772.696C900.575 773.472 900.765 774.184 901.287 774.834C901.809 775.484 902.795 776.11 904.244 776.712L909.907 778.978C912.947 780.208 915.11 781.684 916.397 783.408C917.683 785.132 918.111 787.164 917.681 789.505C917.289 791.635 916.318 793.388 914.768 794.765C913.231 796.144 911.294 797.085 908.956 797.589C906.635 798.08 904.064 798.067 901.244 797.548C896.942 796.757 893.68 795.232 891.457 792.971C889.25 790.699 888.214 787.972 888.347 784.789L897.296 785.954C897.323 787.314 897.787 788.435 898.69 789.315C899.595 790.181 900.851 790.762 902.459 791.058C904.038 791.348 905.363 791.279 906.434 790.848C907.521 790.407 908.161 789.701 908.354 788.73C908.49 787.91 908.268 787.176 907.687 786.53C907.109 785.87 906.14 785.269 904.782 784.728L899.361 782.572C896.305 781.354 894.145 779.819 892.882 777.969C891.632 776.121 891.231 773.984 891.677 771.558C892.06 769.471 892.955 767.777 894.361 766.475C895.78 765.176 897.595 764.307 899.804 763.868C902.028 763.431 904.529 763.468 907.307 763.979C911.411 764.734 914.481 766.195 916.517 768.362C918.567 770.533 919.515 773.149 919.36 776.211ZM937.022 758.683L936.182 763.253C935.943 764.55 935.446 765.829 934.689 767.089C933.949 768.338 933.053 769.486 932 770.531C930.951 771.563 929.856 772.404 928.715 773.055L925.17 769.975C926.08 768.991 926.928 767.871 927.712 766.616C928.511 765.363 929.076 763.841 929.405 762.05L930.253 757.439L937.022 758.683ZM649.858 780.104L641.892 823.427L632.732 821.743L640.698 778.42L649.858 780.104ZM661.724 807.654L658.27 826.438L649.258 824.781L655.233 792.289L663.821 793.868L662.767 799.601L663.148 799.671C664.215 797.914 665.695 796.641 667.59 795.852C669.487 795.049 671.641 794.869 674.053 795.312C676.309 795.727 678.186 796.583 679.683 797.878C681.179 799.174 682.224 800.824 682.818 802.829C683.414 804.819 683.48 807.077 683.016 809.601L679.212 830.289L670.201 828.632L673.709 809.552C674.089 807.566 673.866 805.921 673.042 804.618C672.22 803.3 670.906 802.475 669.101 802.144C667.888 801.921 666.768 801.984 665.742 802.335C664.729 802.688 663.87 803.318 663.164 804.223C662.475 805.117 661.995 806.26 661.724 807.654ZM709.572 802.281L708.327 809.05L688.76 805.452L690.004 798.683L709.572 802.281ZM695.878 791.715L704.89 793.372L699.32 823.664C699.167 824.497 699.174 825.169 699.343 825.681C699.513 826.179 699.808 826.561 700.225 826.827C700.657 827.096 701.176 827.286 701.782 827.398C702.205 827.475 702.635 827.518 703.071 827.525C703.51 827.518 703.846 827.515 704.079 827.514L704.263 834.48C703.786 834.538 703.122 834.584 702.27 834.617C701.416 834.664 700.399 834.601 699.221 834.428C697.034 834.113 695.183 833.474 693.669 832.51C692.169 831.549 691.096 830.288 690.451 828.726C689.805 827.163 689.685 825.319 690.09 823.192L695.878 791.715ZM723.809 839.146C720.467 838.531 717.714 837.325 715.552 835.528C713.406 833.719 711.914 831.448 711.075 828.713C710.239 825.964 710.137 822.876 710.767 819.449C711.381 816.107 712.569 813.293 714.331 811.007C716.093 808.721 718.281 807.09 720.895 806.113C723.524 805.138 726.431 804.944 729.619 805.53C731.762 805.924 733.694 806.636 735.415 807.667C737.152 808.686 738.585 810.007 739.716 811.629C740.861 813.254 741.63 815.174 742.025 817.39C742.422 819.591 742.366 822.074 741.858 824.838L741.403 827.313L713.966 822.268L714.993 816.684L733.947 820.169C734.185 818.871 734.115 817.67 733.735 816.565C733.355 815.46 732.716 814.533 731.818 813.785C730.938 813.026 729.841 812.525 728.53 812.284C727.162 812.032 725.891 812.127 724.716 812.567C723.559 812.995 722.586 813.684 721.8 814.633C721.015 815.568 720.498 816.675 720.248 817.956L719.272 823.266C718.976 824.873 719.017 826.317 719.394 827.596C719.785 828.878 720.472 829.938 721.456 830.775C722.439 831.611 723.685 832.169 725.194 832.446C726.195 832.63 727.138 832.658 728.022 832.529C728.906 832.4 729.696 832.108 730.392 831.652C731.088 831.197 731.666 830.589 732.127 829.828L740.36 831.911C739.569 833.836 738.38 835.425 736.794 836.678C735.224 837.921 733.333 838.768 731.121 839.222C728.926 839.664 726.489 839.639 723.809 839.146ZM744.72 842.335L750.695 809.843L759.431 811.449L758.389 817.118L758.727 817.18C759.69 815.273 760.965 813.932 762.55 813.16C764.138 812.373 765.842 812.147 767.661 812.481C768.112 812.564 768.594 812.682 769.105 812.834C769.616 812.987 770.06 813.148 770.437 813.32L768.967 821.316C768.567 821.111 768.003 820.891 767.273 820.655C766.544 820.418 765.869 820.243 765.249 820.129C763.923 819.885 762.685 819.957 761.535 820.343C760.402 820.718 759.439 821.357 758.646 822.261C757.867 823.167 757.355 824.284 757.112 825.609L753.732 843.992L744.72 842.335ZM806.35 820.076L789.016 850.48L778.862 848.613L773.477 814.032L782.996 815.782L785.47 840.271L785.808 840.333L796.81 818.322L806.35 820.076ZM804.987 853.417L810.962 820.924L819.973 822.581L813.999 855.074L804.987 853.417ZM816.259 817.568C814.919 817.322 813.851 816.666 813.056 815.602C812.277 814.525 812.003 813.36 812.234 812.104C812.462 810.863 813.13 809.886 814.238 809.171C815.363 808.445 816.596 808.205 817.935 808.451C819.275 808.697 820.334 809.359 821.113 810.435C821.909 811.5 822.193 812.653 821.964 813.894C821.734 815.149 821.056 816.14 819.931 816.866C818.823 817.581 817.599 817.815 816.259 817.568ZM835.908 859.758C832.566 859.144 829.814 857.938 827.651 856.141C825.505 854.332 824.013 852.06 823.174 849.325C822.339 846.577 822.236 843.489 822.866 840.062C823.48 836.719 824.669 833.905 826.43 831.62C828.192 829.334 830.38 827.702 832.994 826.725C835.623 825.751 838.531 825.556 841.718 826.142C843.861 826.537 845.793 827.249 847.514 828.28C849.251 829.299 850.685 830.62 851.815 832.242C852.96 833.866 853.729 835.786 854.124 838.002C854.521 840.204 854.465 842.687 853.957 845.451L853.502 847.926L826.065 842.881L827.092 837.296L846.046 840.781C846.285 839.484 846.214 838.283 845.834 837.178C845.454 836.073 844.815 835.146 843.918 834.398C843.037 833.638 841.94 833.138 840.629 832.897C839.261 832.645 837.99 832.739 836.815 833.179C835.658 833.608 834.686 834.297 833.899 835.245C833.115 836.18 832.597 837.288 832.347 838.569L831.371 843.878C831.075 845.486 831.116 846.929 831.493 848.209C831.884 849.491 832.572 850.55 833.555 851.387C834.538 852.224 835.784 852.781 837.293 853.059C838.295 853.243 839.237 853.27 840.121 853.141C841.005 853.012 841.795 852.72 842.491 852.265C843.187 851.81 843.765 851.202 844.226 850.441L852.46 852.523C851.668 854.448 850.479 856.037 848.893 857.291C847.323 858.533 845.432 859.381 843.22 859.835C841.025 860.276 838.588 860.251 835.908 859.758ZM862.996 864.083L860.128 829.965L869.246 831.642L870.266 854.398L870.562 854.452L879.823 833.586L888.771 835.232L890.111 857.916L890.386 857.966L899.326 837.173L908.422 838.845L893.627 869.715L884.086 867.961L882.259 846.5L881.857 846.426L872.515 865.834L862.996 864.083ZM938.561 853.966L930.217 852.956C930.206 852.225 930.019 851.535 929.658 850.885C929.299 850.221 928.769 849.65 928.07 849.172C927.388 848.682 926.524 848.341 925.481 848.149C924.085 847.892 922.853 847.972 921.785 848.388C920.719 848.79 920.097 849.477 919.918 850.45C919.776 851.226 919.966 851.939 920.487 852.589C921.009 853.239 921.995 853.865 923.444 854.466L929.107 856.732C932.147 857.962 934.31 859.439 935.597 861.162C936.884 862.886 937.312 864.918 936.882 867.259C936.49 869.389 935.519 871.142 933.968 872.519C932.431 873.898 930.494 874.84 928.156 875.343C925.835 875.835 923.265 875.821 920.444 875.303C916.143 874.512 912.881 872.986 910.657 870.726C908.451 868.454 907.414 865.726 907.548 862.544L916.497 863.708C916.523 865.069 916.988 866.189 917.89 867.07C918.795 867.936 920.052 868.517 921.659 868.812C923.239 869.103 924.564 869.033 925.634 868.603C926.722 868.161 927.362 867.455 927.555 866.485C927.691 865.664 927.469 864.931 926.888 864.285C926.309 863.624 925.341 863.023 923.982 862.482L918.562 860.326C915.505 859.108 913.345 857.574 912.082 855.723C910.833 853.875 910.431 851.738 910.877 849.313C911.261 847.225 912.156 845.531 913.561 844.23C914.981 842.931 916.796 842.062 919.005 841.622C921.228 841.185 923.729 841.222 926.507 841.733C930.611 842.488 933.681 843.949 935.717 846.117C937.768 848.287 938.715 850.903 938.561 853.966Z" fill="white"/>
<path d="M491.627 241.307C491.648 246.11 490.755 250.201 488.949 253.578C487.157 256.956 484.702 259.54 481.583 261.332C478.48 263.109 474.985 264.007 471.099 264.023C467.185 264.041 463.668 263.167 460.548 261.403C457.429 259.638 454.959 257.075 453.137 253.713C451.316 250.352 450.395 246.276 450.374 241.487C450.353 236.683 451.238 232.593 453.03 229.215C454.822 225.838 457.27 223.261 460.374 221.483C463.478 219.692 466.987 218.787 470.901 218.77C474.787 218.753 478.29 219.627 481.409 221.391C484.543 223.141 487.02 225.697 488.841 229.059C490.677 232.421 491.606 236.503 491.627 241.307ZM482.184 241.348C482.171 238.236 481.693 235.614 480.752 233.482C479.825 231.35 478.52 229.735 476.838 228.638C475.155 227.541 473.188 226.998 470.937 227.008C468.686 227.018 466.724 227.578 465.051 228.69C463.378 229.801 462.081 231.427 461.158 233.568C460.25 235.708 459.802 238.334 459.816 241.446C459.829 244.557 460.3 247.179 461.227 249.312C462.168 251.444 463.48 253.059 465.163 254.155C466.845 255.252 468.812 255.796 471.063 255.786C473.314 255.776 475.276 255.215 476.949 254.104C478.622 252.993 479.912 251.367 480.821 249.226C481.743 247.086 482.198 244.459 482.184 241.348ZM515.877 230.188L515.907 237.071L496.012 237.158L495.982 230.275L515.877 230.188ZM500.464 222.341L509.627 222.3L509.761 253.1C509.765 253.946 509.897 254.605 510.157 255.077C510.417 255.535 510.777 255.856 511.237 256.04C511.711 256.225 512.256 256.316 512.873 256.313C513.303 256.311 513.733 256.273 514.163 256.2C514.593 256.112 514.922 256.046 515.151 256.002L516.622 262.814C516.164 262.959 515.519 263.127 514.689 263.317C513.858 263.521 512.847 263.647 511.658 263.696C509.45 263.791 507.513 263.506 505.846 262.839C504.195 262.173 502.907 261.131 501.983 259.716C501.059 258.3 500.599 256.51 500.604 254.345L500.464 222.341ZM531.779 244.056L531.862 263.156L522.7 263.196L522.508 219.147L531.412 219.108L531.485 235.949L531.873 235.947C532.61 233.994 533.808 232.462 535.466 231.35C537.124 230.225 539.208 229.656 541.718 229.645C544.012 229.635 546.014 230.128 547.725 231.125C549.45 232.106 550.79 233.527 551.744 235.387C552.713 237.233 553.196 239.446 553.193 242.027L553.285 263.062L544.122 263.102L544.037 243.702C544.043 241.666 543.52 240.083 542.468 238.955C541.431 237.827 539.98 237.267 538.116 237.275C536.868 237.28 535.766 237.551 534.807 238.085C533.863 238.62 533.121 239.398 532.58 240.418C532.054 241.424 531.787 242.637 531.779 244.056ZM575.554 263.61C572.156 263.625 569.227 262.949 566.77 261.584C564.326 260.203 562.439 258.247 561.109 255.715C559.778 253.168 559.106 250.153 559.09 246.669C559.075 243.27 559.722 240.285 561.03 237.713C562.338 235.14 564.186 233.132 566.574 231.687C568.977 230.243 571.799 229.514 575.039 229.5C577.219 229.49 579.249 229.833 581.131 230.527C583.026 231.207 584.68 232.239 586.091 233.624C587.517 235.009 588.629 236.753 589.426 238.858C590.224 240.948 590.629 243.398 590.641 246.208L590.652 248.725L562.756 248.847L562.731 243.168L582.003 243.084C581.997 241.765 581.705 240.598 581.127 239.582C580.549 238.567 579.75 237.774 578.729 237.205C577.723 236.622 576.553 236.333 575.22 236.339C573.829 236.345 572.597 236.673 571.524 237.323C570.466 237.958 569.638 238.815 569.041 239.893C568.443 240.957 568.14 242.141 568.131 243.446L568.155 248.844C568.162 250.479 568.469 251.89 569.077 253.078C569.699 254.265 570.57 255.179 571.691 255.819C572.813 256.46 574.14 256.777 575.675 256.77C576.693 256.765 577.624 256.618 578.469 256.327C579.314 256.037 580.036 255.604 580.635 255.027C581.235 254.451 581.691 253.747 582.003 252.914L590.479 253.436C590.058 255.474 589.184 257.256 587.857 258.781C586.545 260.293 584.843 261.476 582.754 262.331C580.678 263.172 578.278 263.598 575.554 263.61ZM596.694 262.872L596.549 229.836L605.432 229.797L605.457 235.561L605.802 235.56C606.395 233.507 607.399 231.954 608.814 230.901C610.229 229.833 611.861 229.296 613.711 229.288C614.17 229.286 614.664 229.312 615.195 229.367C615.726 229.422 616.192 229.499 616.594 229.598L616.63 237.728C616.199 237.601 615.604 237.488 614.843 237.391C614.083 237.294 613.387 237.247 612.756 237.25C611.408 237.256 610.205 237.555 609.147 238.148C608.102 238.726 607.274 239.532 606.662 240.567C606.065 241.602 605.769 242.794 605.774 244.142L605.856 262.832L596.694 262.872ZM317.783 293.042L317.976 337.091L308.663 337.132L308.47 293.083L317.783 293.042ZM334.545 317.919L334.629 337.018L325.466 337.058L325.322 304.022L334.054 303.984L334.079 309.812L334.467 309.811C335.19 307.886 336.409 306.361 338.125 305.235C339.84 304.094 341.924 303.519 344.376 303.508C346.67 303.498 348.673 303.991 350.383 304.988C352.094 305.984 353.427 307.412 354.381 309.272C355.336 311.117 355.819 313.324 355.83 315.89L355.922 336.925L346.759 336.965L346.674 317.565C346.68 315.543 346.157 313.968 345.105 312.84C344.053 311.697 342.61 311.13 340.774 311.138C339.541 311.143 338.453 311.413 337.509 311.948C336.579 312.483 335.851 313.26 335.325 314.281C334.813 315.287 334.553 316.499 334.545 317.919ZM380.571 303.78L380.601 310.663L360.706 310.75L360.676 303.867L380.571 303.78ZM365.158 295.932L374.32 295.892L374.455 326.692C374.459 327.538 374.591 328.197 374.851 328.669C375.111 329.127 375.471 329.448 375.93 329.632C376.404 329.817 376.95 329.908 377.566 329.905C377.996 329.903 378.426 329.865 378.856 329.792C379.286 329.704 379.616 329.638 379.845 329.594L381.316 336.406C380.858 336.551 380.213 336.719 379.382 336.909C378.551 337.113 377.541 337.239 376.351 337.288C374.143 337.383 372.206 337.098 370.54 336.431C368.888 335.764 367.6 334.723 366.676 333.308C365.752 331.892 365.293 330.102 365.298 327.937L365.158 295.932ZM401.388 337.372C397.989 337.387 395.061 336.711 392.603 335.345C390.159 333.965 388.272 332.009 386.942 329.477C385.612 326.93 384.939 323.915 384.924 320.43C384.909 317.032 385.556 314.047 386.864 311.474C388.172 308.902 390.02 306.894 392.408 305.449C394.811 304.005 397.632 303.276 400.873 303.261C403.052 303.252 405.083 303.594 406.964 304.289C408.86 304.969 410.513 306.001 411.925 307.386C413.35 308.77 414.462 310.515 415.26 312.619C416.058 314.709 416.463 317.16 416.475 319.97L416.486 322.486L388.59 322.608L388.565 316.93L407.836 316.846C407.831 315.527 407.539 314.359 406.961 313.344C406.383 312.328 405.584 311.536 404.563 310.967C403.557 310.383 402.387 310.095 401.053 310.1C399.662 310.106 398.431 310.434 397.358 311.084C396.3 311.72 395.472 312.577 394.874 313.655C394.277 314.718 393.974 315.903 393.965 317.208L393.989 322.606C393.996 324.241 394.303 325.652 394.91 326.839C395.532 328.027 396.404 328.941 397.525 329.581C398.646 330.221 399.974 330.538 401.508 330.532C402.526 330.527 403.458 330.38 404.302 330.089C405.147 329.799 405.869 329.365 406.469 328.789C407.069 328.213 407.525 327.508 407.836 326.675L416.313 327.198C415.892 329.236 415.018 331.017 413.691 332.543C412.378 334.054 410.677 335.238 408.587 336.093C406.512 336.934 404.112 337.36 401.388 337.372ZM422.527 336.634L422.383 303.598L431.266 303.559L431.291 309.323L431.635 309.321C432.228 307.268 433.233 305.715 434.647 304.662C436.062 303.595 437.695 303.057 439.544 303.049C440.003 303.047 440.498 303.074 441.029 303.129C441.56 303.184 442.026 303.261 442.428 303.359L442.463 311.49C442.033 311.362 441.437 311.25 440.677 311.153C439.916 311.056 439.221 311.009 438.59 311.012C437.242 311.018 436.039 311.317 434.98 311.909C433.936 312.488 433.108 313.294 432.496 314.329C431.898 315.364 431.602 316.556 431.608 317.904L431.69 336.594L422.527 336.634ZM478.971 303.35L467.565 336.437L457.241 336.482L445.547 303.496L455.226 303.454L462.19 327.062L462.534 327.06L469.271 303.393L478.971 303.35ZM483.804 336.366L483.66 303.33L492.822 303.29L492.967 336.326L483.804 336.366ZM488.244 299.051C486.882 299.057 485.711 298.61 484.732 297.711C483.767 296.798 483.282 295.703 483.277 294.427C483.271 293.165 483.747 292.08 484.704 291.173C485.675 290.251 486.841 289.787 488.203 289.781C489.566 289.775 490.729 290.229 491.694 291.142C492.673 292.041 493.165 293.122 493.171 294.384C493.176 295.66 492.693 296.759 491.722 297.681C490.766 298.588 489.606 299.045 488.244 299.051ZM515.365 336.874C511.967 336.889 509.039 336.213 506.581 334.847C504.137 333.467 502.25 331.511 500.92 328.979C499.589 326.432 498.917 323.417 498.901 319.932C498.886 316.534 499.533 313.549 500.841 310.976C502.149 308.404 503.997 306.396 506.385 304.951C508.788 303.507 511.61 302.777 514.85 302.763C517.03 302.754 519.06 303.096 520.942 303.791C522.837 304.471 524.491 305.503 525.902 306.888C527.328 308.272 528.44 310.017 529.237 312.121C530.035 314.211 530.44 316.661 530.452 319.472L530.463 321.988L502.567 322.11L502.542 316.432L521.814 316.348C521.808 315.029 521.516 313.861 520.938 312.846C520.36 311.83 519.561 311.038 518.54 310.469C517.534 309.885 516.364 309.596 515.031 309.602C513.64 309.608 512.408 309.936 511.335 310.586C510.277 311.222 509.449 312.079 508.852 313.157C508.254 314.22 507.951 315.405 507.942 316.71L507.966 322.108C507.973 323.743 508.28 325.154 508.888 326.341C509.51 327.529 510.381 328.443 511.502 329.083C512.624 329.723 513.951 330.04 515.486 330.034C516.504 330.029 517.435 329.882 518.28 329.591C519.125 329.301 519.847 328.867 520.446 328.291C521.046 327.715 521.502 327.01 521.814 326.177L530.29 326.699C529.869 328.737 528.995 330.519 527.668 332.045C526.356 333.556 524.655 334.74 522.565 335.595C520.489 336.436 518.089 336.862 515.365 336.874ZM542.785 336.109L533.65 303.111L542.92 303.071L548.136 325.245L548.437 325.244L553.674 303.024L562.772 302.984L568.289 325.028L568.568 325.027L573.505 302.937L582.754 302.897L573.929 335.973L564.229 336.015L558.46 315.263L558.051 315.265L552.464 336.066L542.785 336.109ZM615.17 312.176L606.784 312.729C606.637 312.012 606.326 311.369 605.851 310.797C605.375 310.211 604.749 309.748 603.973 309.407C603.212 309.052 602.301 308.877 601.239 308.881C599.82 308.888 598.624 309.194 597.652 309.8C596.679 310.393 596.195 311.183 596.199 312.173C596.203 312.961 596.521 313.627 597.154 314.169C597.788 314.711 598.872 315.144 600.408 315.467L606.392 316.645C609.607 317.291 612.006 318.341 613.59 319.797C615.174 321.253 615.971 323.17 615.981 325.551C615.991 327.716 615.361 329.619 614.092 331.259C612.837 332.899 611.108 334.183 608.904 335.11C606.714 336.023 604.185 336.486 601.317 336.498C596.944 336.517 593.455 335.622 590.852 333.812C588.263 331.988 586.74 329.5 586.281 326.347L595.291 325.835C595.569 327.167 596.233 328.182 597.283 328.88C598.333 329.564 599.675 329.902 601.31 329.895C602.916 329.888 604.205 329.574 605.177 328.953C606.164 328.318 606.662 327.506 606.672 326.516C606.654 325.685 606.3 325.005 605.609 324.478C604.919 323.936 603.856 323.525 602.421 323.244L596.694 322.129C593.465 321.498 591.059 320.39 589.475 318.805C587.905 317.221 587.114 315.195 587.104 312.729C587.094 310.607 587.66 308.776 588.8 307.237C589.955 305.697 591.577 304.507 593.667 303.666C595.771 302.826 598.236 302.399 601.061 302.387C605.233 302.368 608.521 303.236 610.923 304.989C613.339 306.742 614.755 309.138 615.17 312.176Z" fill="white"/>
<path d="M627.484 967.748C623.661 967.045 620.381 965.715 617.646 963.757C614.929 961.803 612.923 959.43 611.628 956.637C610.332 953.845 609.942 950.846 610.457 947.64L621.82 949.729C621.551 951.899 622.133 953.805 623.565 955.448C624.997 957.091 626.867 958.125 629.176 958.55C631.015 958.888 632.713 958.78 634.269 958.228C635.847 957.66 637.167 956.719 638.229 955.404C639.312 954.074 640.03 952.453 640.381 950.541C640.74 948.593 640.64 946.804 640.082 945.172C639.542 943.544 638.627 942.182 637.337 941.088C636.047 939.993 634.474 939.265 632.62 938.906C630.997 938.607 629.357 938.651 627.702 939.036C626.064 939.425 624.715 940.118 623.655 941.117L613.583 937.335L621.579 908.599L655.451 914.827L653.69 924.405L629.477 919.952L625.491 933.567L625.815 933.627C627.041 932.435 628.72 931.569 630.852 931.029C632.984 930.489 635.267 930.442 637.702 930.89C641.039 931.504 643.87 932.835 646.197 934.885C648.524 936.935 650.192 939.47 651.203 942.49C652.217 945.492 652.389 948.768 651.718 952.318C651.049 956.055 649.573 959.214 647.29 961.796C645.028 964.364 642.184 966.19 638.759 967.276C635.355 968.347 631.597 968.504 627.484 967.748ZM656.49 972.298L658.042 963.857L681.122 949.223C683.098 947.908 684.774 946.706 686.149 945.616C687.542 944.53 688.65 943.419 689.474 942.284C690.302 941.131 690.85 939.824 691.118 938.363C691.417 936.74 691.304 935.274 690.78 933.966C690.26 932.639 689.417 931.543 688.253 930.676C687.091 929.791 685.699 929.2 684.076 928.901C682.381 928.589 680.839 928.66 679.45 929.113C678.062 929.567 676.907 930.37 675.986 931.525C675.065 932.679 674.442 934.14 674.117 935.908L662.998 933.863C663.665 930.238 665.064 927.242 667.196 924.874C669.328 922.507 672.008 920.865 675.234 919.948C678.461 919.031 682.004 918.927 685.863 919.637C689.831 920.366 693.156 921.705 695.837 923.652C698.54 925.585 700.484 927.937 701.671 930.71C702.858 933.483 703.158 936.465 702.571 939.658C702.186 941.75 701.392 943.739 700.187 945.624C699.001 947.513 697.133 949.51 694.583 951.614C692.037 953.7 688.542 956.125 684.1 958.888L674.553 965.327L674.483 965.706L697.75 969.984L695.989 979.561L656.49 972.298ZM711.192 983.084C709.407 982.756 707.99 981.842 706.941 980.344C705.914 978.832 705.565 977.183 705.893 975.397C706.218 973.63 707.128 972.231 708.623 971.2C710.135 970.173 711.785 969.824 713.57 970.152C715.302 970.471 716.7 971.38 717.767 972.882C718.833 974.383 719.204 976.017 718.879 977.785C718.66 978.975 718.153 980.01 717.357 980.889C716.583 981.754 715.654 982.394 714.571 982.81C713.491 983.208 712.365 983.299 711.192 983.084ZM727.277 985.314L758.603 944.087L758.672 943.709L731.916 938.789L733.677 929.212L772.553 936.36L770.768 946.072L739.37 987.538L727.277 985.314ZM802.631 988.43L803.169 985.509C803.576 983.29 804.42 981.338 805.7 979.653C807 977.953 808.655 976.71 810.665 975.923C812.695 975.122 815.018 974.962 817.633 975.443C820.285 975.93 822.409 976.899 824.007 978.349C825.623 979.802 826.719 981.551 827.294 983.596C827.89 985.626 827.982 987.759 827.571 989.996L827.034 992.918C826.626 995.136 825.781 997.097 824.498 998.8C823.218 1000.49 821.565 1001.72 819.538 1002.5C817.507 1003.3 815.184 1003.46 812.569 1002.98C809.918 1002.5 807.795 1001.52 806.2 1000.05C804.602 998.601 803.505 996.861 802.909 994.83C802.316 992.782 802.223 990.649 802.631 988.43ZM811.041 986.956L810.504 989.878C810.268 991.159 810.353 992.423 810.757 993.672C811.179 994.925 812.211 995.702 813.853 996.004C815.494 996.305 816.715 995.952 817.516 994.943C818.334 993.938 818.865 992.777 819.107 991.46L819.644 988.538C819.886 987.222 819.823 985.942 819.455 984.7C819.087 983.457 818.055 982.68 816.36 982.368C814.737 982.07 813.505 982.431 812.665 983.451C811.824 984.471 811.283 985.64 811.041 986.956ZM780.028 951.495L780.565 948.573C780.976 946.337 781.831 944.378 783.128 942.696C784.429 940.996 786.084 939.752 788.093 938.966C790.121 938.183 792.424 938.028 795.003 938.502C797.672 938.993 799.806 939.963 801.404 941.413C803.002 942.863 804.097 944.612 804.69 946.66C805.286 948.691 805.379 950.824 804.968 953.06L804.43 955.982C804.019 958.219 803.165 960.178 801.867 961.86C800.588 963.545 798.935 964.779 796.907 965.562C794.901 966.331 792.582 966.473 789.949 965.989C787.315 965.505 785.191 964.536 783.575 963.083C781.98 961.615 780.883 959.875 780.283 957.863C779.705 955.836 779.62 953.713 780.028 951.495ZM788.492 950.031L787.955 952.953C787.713 954.269 787.795 955.543 788.203 956.774C788.629 958.008 789.635 958.771 791.222 959.063C792.881 959.368 794.111 959.016 794.912 958.008C795.731 957.002 796.262 955.841 796.504 954.525L797.041 951.603C797.283 950.286 797.22 949.007 796.852 947.764C796.484 946.522 795.443 945.743 793.729 945.428C792.124 945.133 790.909 945.506 790.083 946.548C789.258 947.589 788.727 948.75 788.492 950.031ZM775.859 994.247L824.138 945.845L831.226 947.149L782.947 995.551L775.859 994.247Z" fill="white"/>
<path d="M394.905 444.931L394.872 435.551L418.259 398.415L426.346 398.387L426.392 411.37L421.606 411.387L406.863 434.903L406.864 435.343L440.286 435.225L440.319 444.77L394.905 444.931ZM421.98 454.738L421.934 441.975L422.14 437.82L422 398.402L433.168 398.363L433.368 454.698L421.98 454.738ZM450.518 454.637L473.708 408.342L473.707 407.957L446.502 408.053L446.468 398.316L485.996 398.176L486.031 408.051L462.814 454.593L450.518 454.637ZM491.637 455.207C489.822 455.213 488.261 454.577 486.954 453.298C485.666 452 485.019 450.444 485.012 448.628C485.006 446.831 485.642 445.288 486.921 444C488.219 442.712 489.775 442.065 491.591 442.058C493.351 442.052 494.894 442.688 496.219 443.967C497.544 445.246 498.209 446.784 498.216 448.582C498.22 449.792 497.912 450.902 497.292 451.913C496.691 452.906 495.896 453.706 494.908 454.315C493.919 454.905 492.829 455.202 491.637 455.207ZM526.757 455.137C522.65 455.152 518.989 454.459 515.774 453.058C512.579 451.639 510.05 449.686 508.189 447.198C506.346 444.693 505.392 441.798 505.325 438.516L517.318 438.474C517.397 439.849 517.85 441.057 518.679 442.1C519.526 443.124 520.648 443.918 522.043 444.481C523.439 445.045 525.008 445.323 526.75 445.317C528.566 445.311 530.169 444.984 531.561 444.337C532.952 443.691 534.04 442.797 534.824 441.658C535.609 440.518 535.999 439.205 535.993 437.72C535.988 436.216 535.562 434.888 534.714 433.736C533.885 432.565 532.689 431.652 531.128 430.998C529.585 430.343 527.75 430.019 525.623 430.027L520.369 430.046L520.338 421.298L525.592 421.28C527.389 421.273 528.975 420.956 530.348 420.328C531.739 419.699 532.818 418.833 533.584 417.73C534.351 416.609 534.731 415.306 534.726 413.82C534.721 412.408 534.377 411.172 533.695 410.11C533.031 409.031 532.093 408.191 530.88 407.59C529.686 406.989 528.291 406.691 526.696 406.697C525.082 406.702 523.607 407.001 522.27 407.593C520.934 408.166 519.864 408.986 519.061 410.052C518.258 411.119 517.831 412.367 517.781 413.798L506.366 413.838C506.409 410.592 507.325 407.728 509.114 405.246C510.902 402.764 513.316 400.821 516.355 399.416C519.412 397.993 522.867 397.275 526.718 397.262C530.605 397.248 534.01 397.942 536.93 399.343C539.851 400.745 542.123 402.644 543.745 405.041C545.385 407.419 546.202 410.094 546.194 413.065C546.223 416.219 545.252 418.854 543.279 420.969C541.324 423.085 538.77 424.433 535.618 425.013L535.62 425.453C539.766 425.97 542.925 427.398 545.098 429.738C547.288 432.059 548.38 434.971 548.374 438.474C548.404 441.683 547.488 444.538 545.626 447.038C543.783 449.539 541.232 451.51 537.973 452.952C534.714 454.394 530.975 455.122 526.757 455.137ZM587.79 443.588L587.78 440.618C587.772 438.362 588.241 436.288 589.188 434.396C590.153 432.485 591.551 430.958 593.381 429.815C595.229 428.653 597.482 428.067 600.141 428.058C602.837 428.048 605.104 428.609 606.942 429.739C608.798 430.87 610.197 432.387 611.139 434.291C612.099 436.176 612.583 438.256 612.591 440.53L612.602 443.501C612.61 445.756 612.14 447.839 611.193 449.75C610.247 451.642 608.849 453.16 607.001 454.303C605.153 455.465 602.899 456.051 600.24 456.06C597.545 456.07 595.278 455.5 593.44 454.351C591.602 453.221 590.203 451.713 589.243 449.827C588.282 447.924 587.798 445.844 587.79 443.588ZM595.784 440.589L595.795 443.56C595.799 444.862 596.116 446.09 596.743 447.243C597.389 448.396 598.546 448.969 600.215 448.963C601.884 448.957 603.019 448.385 603.62 447.246C604.24 446.107 604.547 444.868 604.542 443.529L604.532 440.558C604.527 439.22 604.229 437.974 603.638 436.82C603.047 435.667 601.89 435.094 600.166 435.1C598.516 435.106 597.372 435.687 596.734 436.845C596.096 438.002 595.78 439.25 595.784 440.589ZM558.766 411.452L558.756 408.481C558.748 406.207 559.226 404.124 560.191 402.232C561.157 400.321 562.554 398.794 564.384 397.651C566.232 396.507 568.467 395.931 571.09 395.922C573.804 395.912 576.08 396.473 577.917 397.603C579.755 398.734 581.154 400.251 582.115 402.154C583.075 404.04 583.559 406.12 583.567 408.394L583.578 411.364C583.586 413.638 583.107 415.721 582.142 417.614C581.195 419.506 579.797 421.024 577.949 422.167C576.119 423.292 573.866 423.86 571.188 423.869C568.511 423.879 566.244 423.318 564.388 422.188C562.55 421.039 561.151 419.531 560.191 417.664C559.249 415.778 558.774 413.708 558.766 411.452ZM566.815 408.453L566.826 411.424C566.83 412.762 567.147 413.999 567.774 415.134C568.42 416.268 569.55 416.833 571.163 416.827C572.851 416.821 573.995 416.249 574.596 415.11C575.215 413.97 575.523 412.732 575.518 411.393L575.507 408.422C575.503 407.083 575.205 405.837 574.614 404.684C574.023 403.531 572.857 402.957 571.114 402.964C569.482 402.969 568.357 403.56 567.737 404.736C567.118 405.912 566.811 407.151 566.815 408.453ZM562.548 454.241L601.079 397.769L608.286 397.743L569.755 454.215L562.548 454.241Z" fill="white"/>
</svg>
